<svg width="577" height="576" viewBox="0 0 577 576" fill="none" xmlns="http://www.w3.org/2000/svg">
<path d="M195.574 54.6431L198.565 56.8887L201.183 59.5086L204.175 62.1284L213.897 71.8594L216.889 74.4793L222.498 79.7191L231.099 88.3273L234.09 90.9472L240.074 96.9355L242.317 98.8068L244.935 101.801L250.17 107.041L252.04 122.011L256.153 147.462L259.519 166.175L265.876 197.614L269.241 212.959L273.355 230.175L277.468 245.52L280.46 257.123L283.825 267.976L288.313 281.45L289.061 282.947L293.548 271.345L298.035 257.871L301.401 247.017L308.132 223.064L314.115 199.111L318.602 180.772L321.968 164.678L325.707 146.713L328.699 130.62L330.569 119.766L332.812 108.164L335.43 105.169L339.917 101.052L342.909 98.4325L347.77 93.567L350.762 90.9472L353.005 88.7015H353.753V87.953L357.867 84.5846L363.85 78.9706L368.337 74.8536L373.199 69.9881L377.312 66.6197L380.304 63.6255L383.295 61.0056L385.913 58.3858L388.156 56.8887L388.53 57.2629L388.904 84.2103L389.278 132.117L387.035 135.111L383.295 139.976L378.808 145.965L375.816 150.082L372.451 154.573L367.963 160.935L364.972 165.052L359.737 172.538L355.249 179.275L350.762 185.637L345.9 192.374L333.934 211.088L329.447 218.199L324.959 224.935L322.716 229.427L320.472 232.795L317.854 237.286L315.611 240.655L312.245 246.643L309.628 250.76L304.392 259.742L300.279 267.976L296.539 274.713L292.8 281.824L291.304 284.819L298.783 281.45L319.724 270.971L326.829 267.228L330.569 265.357L338.422 260.865L346.648 256.374L352.258 253.006L359.363 248.889L380.304 236.164L389.278 230.55L436.396 199.111L441.257 195.368L446.492 192L447.614 190.877L454.345 191.626L521.282 193.871L522.403 194.245L521.656 195.742L518.664 198.737L516.046 201.731L504.828 212.959L502.21 215.953L470.051 248.14L451.727 250.76L421.438 256L404.984 258.994L376.938 264.608L351.884 270.222L327.951 276.21L312.619 280.702L298.409 284.819L292.426 286.69L292.052 287.438L295.792 288.561L304.766 291.93L317.107 295.672L329.447 299.789L350.014 305.403L364.224 309.146L379.556 312.889L399.001 317.38L420.316 321.871L435.274 324.865L458.832 329.357L469.677 331.602L471.921 333.473L474.912 337.216L477.53 340.21L482.765 345.824L486.878 350.316L494.357 357.801L496.975 360.795L500.341 364.538L504.454 369.029L507.446 372.023L510.063 375.017L514.924 380.257L517.542 383.251L519.412 385.871L519.038 386.62L479.4 386.994L456.963 387.368H444.622L440.509 384L436.396 381.006L423.681 371.649L417.698 367.532L413.211 364.164L408.724 361.169L401.993 356.304L382.921 343.579L373.573 337.59L369.459 334.596L365.72 331.976L359.363 328.234L351.51 323.368L347.396 320.748L330.569 310.643L321.22 305.403L312.993 300.912L306.636 297.169L298.783 293.052L292.8 290.433L290.556 289.684L293.922 294.924L306.262 319.626L309.628 325.988L311.871 329.731L316.359 338.339L319.724 343.953L323.838 351.438L326.829 356.304L330.943 363.041L333.934 368.28L338.795 375.766L342.161 381.38L344.779 385.123L348.892 391.859L357.119 404.585L366.094 418.058L372.077 426.666L376.938 433.403L379.556 437.52L382.921 442.011L384.791 443.883L385.165 445.006L384.791 461.099L382.921 517.24L382.547 519.859L380.678 518.737L375.816 514.245L369.085 507.509L366.094 504.889L362.354 501.146L359.363 498.526L351.884 491.041L348.892 488.421L330.195 469.707L328.325 465.965L326.829 458.105L324.212 440.889L322.716 431.158L319.724 414.69L317.854 404.959L315.985 395.602L312.993 379.883L310.002 366.409L307.01 353.31L305.514 346.947L303.644 340.585L298.035 318.128L292.8 300.912L290.182 293.801L289.434 291.555L286.817 297.169L282.33 309.146L279.338 318.877L276.72 327.859L273.355 338.713L270.737 348.444L266.25 365.661L262.884 379.509L259.145 395.602L254.657 416.187L251.666 431.158L249.048 445.006L247.178 455.111L245.683 465.216L244.561 467.088L233.716 477.941L229.603 481.31L223.246 487.298L219.506 490.666L215.767 494.409L211.654 497.778L205.67 503.392L200.809 507.883L191.834 516.865L190.339 517.988H189.591L189.217 509.006L188.843 485.052L188.469 443.883L190.339 440.14L192.208 437.895L194.078 436.023L197.07 431.532L198.939 429.286L200.435 426.666L203.053 423.672L206.792 418.433L209.41 414.69L212.401 410.947L213.149 409.076H213.897L214.645 407.579L218.011 402.713L220.628 398.971L223.994 393.731L226.985 388.865L229.603 385.871L232.221 381.754L238.952 371.649L244.561 363.041L249.048 355.93L252.04 351.064L256.153 344.702L262.51 333.848L265.502 328.982L268.493 323.742L271.859 318.128L275.598 311.017L278.59 306.152L282.33 299.041L285.321 292.678L286.443 289.684L281.956 291.555L256.527 304.28L250.544 307.649L248.674 308.772L236.708 315.134L233.716 317.006L226.985 320.748L221.002 324.491L215.767 327.485L207.166 332.725L201.183 336.468L189.591 343.579L176.503 352.187L170.145 356.304L166.78 358.55L160.797 362.292L158.179 364.538L154.066 367.158L141.725 375.392L137.238 378.76L133.873 381.38L132.377 382.503L130.507 382.877L106.574 382.503L81.894 381.754L57.5874 380.631L55.3438 380.257L56.4656 378.386L62.8227 372.397L79.6503 355.555L82.2679 352.561L87.8771 346.947L90.4948 343.953L93.1124 341.707L95.73 338.713L98.3476 336.093L101.713 331.976L105.453 328.608L107.322 326.737L124.15 323.742L143.595 320.748L167.154 316.631L199.313 310.269L232.221 302.783L237.456 301.286L246.805 299.041L261.762 294.924L275.598 290.807L284.573 287.438L286.069 287.064L278.216 284.444L262.884 279.204L252.788 275.836L241.569 272.842L231.099 269.848L203.801 262.737L185.851 258.62L162.293 253.38L152.57 251.509L143.221 249.637L128.637 247.017L121.906 245.52L115.549 244.772L109.566 243.649L106.574 241.029L101.339 235.415L94.6082 227.93L86.0074 219.321L83.3898 216.327L78.9024 211.088L74.415 206.222L68.4319 200.234L65.8143 197.24L61.3269 192.374L58.3353 188.631V187.883H69.1798L117.045 187.509H133.125L137.238 190.128L148.457 198.737L154.44 202.854L161.171 207.719L166.032 211.088L173.137 215.953L177.25 218.947L185.851 224.935L193.704 230.175L198.939 233.544L204.175 237.286L212.775 242.9L228.107 252.257L235.96 257.123L245.309 262.737L258.397 270.222L268.867 275.836L277.094 280.327L282.33 282.947L286.817 284.819L283.451 277.333L275.225 260.865L271.485 253.754L265.876 244.023L262.136 236.912L257.649 229.052L253.91 222.316L250.918 217.45L245.683 208.842L241.195 201.731L235.586 192.748L230.725 185.263L227.359 180.023L225.116 176.655L221.75 171.415L212.775 157.941L207.914 150.83L203.801 144.842L199.313 138.479L194.452 131.742L192.956 129.871L192.582 128.374V122.011L194.078 93.1928L195.2 55.3916L195.574 54.6431Z" fill="#FEFEFE"/>
<path d="M287.566 422.924L288.313 423.673L288.687 425.544L290.183 446.129L291.679 458.854L293.923 472.702L295.418 482.807L299.906 506.386L302.897 519.485L305.141 529.216L306.263 532.211V534.831L304.767 536.702L301.775 544.562L295.792 557.287L290.931 568.515L288.313 576H287.192L283.826 567.766L279.713 558.784L276.347 551.298L269.99 536.702L268.868 534.456V531.462L270.738 525.848L275.225 506.012L278.591 488.421L281.582 471.205L284.574 450.62L285.696 439.018L286.444 426.292L286.818 423.673L287.566 422.924Z" fill="#FEFEFE"/>
<path d="M40.7602 266.854L44.1257 267.602L68.8062 273.216L93.8607 278.082L115.176 281.45L127.142 282.947L150.327 285.193L151.448 286.316L148.831 287.064L132.003 288.187L120.411 289.31L87.8775 294.55L61.7012 299.789L49.7349 302.409L43.3778 304.281H41.1342L31.0376 299.789L17.9494 293.801L6.3571 288.936L0 285.941L0.373947 284.819L8.22683 281.825L23.1847 275.088L35.151 269.848L40.3863 267.228L40.7602 266.854Z" fill="#FEFEFE"/>
<path d="M490.992 84.959H492.862L492.488 87.2046L490.244 93.1929L485.757 104.795L479.774 120.515L476.782 126.877L474.912 128.374L472.295 129.497L468.555 132.117L465.19 133.614H464.442L464.068 134.737L457.337 138.854L449.11 144.093L445.37 146.713L440.509 150.082L433.778 154.573L426.673 159.439L422.934 162.433L418.446 165.427L415.455 167.672L411.715 170.667L403.862 176.655L398.627 180.772L393.766 185.263L390.4 187.883L386.661 191.626H384.791L385.539 190.129L387.783 188.257L390.774 184.515L395.635 178.526L399.375 174.409L401.993 171.041L405.358 166.924L406.854 164.678L410.219 160.936L411.715 157.567L413.585 155.696L416.576 151.579L419.194 147.836L424.429 140.725L427.421 136.234L431.908 129.871L436.022 123.134L440.135 116.772L444.249 110.035L447.988 104.421L450.606 100.304L454.345 98.4327L468.181 93.1929L477.156 89.8245L485.009 86.8303L489.122 85.3333L490.992 84.959Z" fill="#FEFEFE"/>
<path d="M191.46 383.251H192.208L191.46 385.497L188.095 389.614L183.608 394.105L179.868 398.971L175.007 404.959L172.763 408.327L171.267 409.825L167.528 414.69L164.91 418.433L159.675 425.544L155.562 431.158L151.822 436.772L149.204 440.515L143.969 448.374L140.604 453.24L136.49 459.602L133.873 464.094L130.507 469.333L127.889 473.825L124.524 475.696L114.801 479.439L98.7216 485.427L88.2511 489.544L84.1377 491.415L84.8856 489.17L89.373 477.567L94.6082 464.094L98.3477 454.363L101.339 447.626L108.818 443.135L111.81 441.263L119.289 436.772L124.898 433.029L128.637 430.409L145.091 419.556L151.448 415.064L154.066 412.819L158.927 409.825L165.658 404.585L170.519 400.842L175.755 396.725L180.616 392.608H181.364V391.86L184.355 389.614L186.225 387.743L191.086 383.626L191.46 383.251Z" fill="#FEFEFE"/>
<path d="M533.623 270.596H538.11L566.156 283.322L574.383 287.064L577 288.561L576.626 290.058L567.278 293.801L557.181 298.292L548.58 302.035L544.093 304.281L536.988 306.901L533.249 306.526L524.274 304.655L509.69 301.286L484.262 296.421L466.686 293.427L454.72 291.93L436.77 290.058L431.161 289.684L426.3 288.187V287.439H438.266L448.363 286.316L474.165 282.573L505.203 276.959L525.77 272.468L533.623 270.596Z" fill="#FEFEFE"/>
<path d="M290.183 0H290.931L293.922 5.61404L298.036 14.9708L303.271 26.9474L306.636 34.4327L308.88 38.924V41.5439L301.401 75.9766L299.157 86.8304L295.418 108.912L292.426 132.865L290.931 145.216L290.557 150.456L289.809 150.83L288.313 131.368L286.069 114.901L284.948 105.17L281.956 88.3275L279.338 74.1053L275.599 56.1404L272.981 46.7836L271.859 40.7953L272.233 38.5497L274.851 33.6842L276.347 30.3158L281.208 19.0877L284.574 11.6023L289.809 0.748538L290.183 0Z" fill="#FEFEFE"/>
<path d="M384.791 382.877L386.661 383.626L389.652 386.62L394.888 390.737L400.123 395.602L405.358 399.719L410.967 404.211L416.203 407.953L422.186 412.444L426.299 415.439L431.534 419.181L436.022 422.175L445.37 428.538L455.467 435.275L462.946 439.766L468.181 443.135L473.042 446.503L475.286 447.626L478.278 452.491L486.505 474.199L492.488 489.544L492.862 491.041L490.244 490.667L481.269 486.924L473.416 483.93L468.929 482.058L462.946 479.813L455.841 477.193L450.98 475.322L449.11 473.076L445.37 467.088L440.509 459.228L421.064 430.035L416.576 423.673L412.089 417.684L406.854 410.573L394.514 394.854L390.774 390.737L388.157 387.743L384.791 383.626V382.877Z" fill="#FEFEFE"/>
<path d="M85.2598 83.4619L97.974 87.9531L105.827 90.9473L115.549 94.69L122.654 97.6841L126.768 99.1812L128.638 100.304L132.003 106.667L134.621 110.409L139.108 117.895L143.595 125.006L148.457 132.117L153.318 138.854L158.553 146.713L163.415 153.45L167.154 158.69L170.894 163.555L175.007 168.795L182.486 178.152L185.478 181.146L189.591 186.386L191.835 189.38L193.33 190.877V191.626L191.461 190.877L185.851 186.012L182.112 182.643L179.12 180.023L176.503 177.403L172.389 174.784L167.528 170.667L162.293 166.924L158.927 164.678L152.57 159.813L146.587 155.696L140.604 151.205L128.264 142.971L119.289 137.357L111.436 132.491L106.575 129.123L103.209 127.251L101.339 125.38L97.2261 114.901L91.6169 100.304L87.8774 90.9473L85.6337 84.5847L85.2598 83.4619Z" fill="#FEFEFE"/>
</svg>
