<svg xmlns="http://www.w3.org/2000/svg" version="1.1" xmlns:xlink="http://www.w3.org/1999/xlink" width="1000" height="1000"><style>
    #light-icon {
      display: inline;
    }
    #dark-icon {
      display: none;
    }

    @media (prefers-color-scheme: dark) {
      #light-icon {
        display: none;
      }
      #dark-icon {
        display: inline;
      }
    }
  </style><g id="light-icon"><svg xmlns="http://www.w3.org/2000/svg" version="1.1" xmlns:xlink="http://www.w3.org/1999/xlink" width="1000" height="1000"><g><g transform="matrix(1.7301038062283738,0,0,1.7301038062283738,0,0)"><svg xmlns="http://www.w3.org/2000/svg" version="1.1" xmlns:xlink="http://www.w3.org/1999/xlink" width="578" height="578"><svg width="578" height="578" viewBox="0 0 578 578" fill="none" xmlns="http://www.w3.org/2000/svg">
<path d="M195.344 56.2256L197.271 56.8682L200.163 59.7598L202.733 62.0088L204.982 64.5791L207.553 66.8281L215.585 74.8604L218.155 77.1094L225.224 84.1777L227.794 86.4268L231.649 89.9609L241.288 99.5996L243.858 101.849L247.071 104.74L249.32 107.311L250.927 116.307L252.212 123.696L255.104 144.259L257.353 155.504L259.28 166.428L260.887 175.745L264.1 190.846L266.027 200.806L269.24 213.979L272.132 227.794L275.666 240.967L278.236 251.248L283.377 268.919L287.232 280.164L289.16 284.662L289.481 284.983L291.409 279.521L293.979 271.489L298.478 257.674L301.369 248.035L303.618 240.003L306.188 231.007L308.116 224.581L310.687 213.015L312.936 204.982L315.506 193.737L319.683 176.388L322.896 160.323L324.823 151.648L327.715 135.263L329.643 127.23L331.57 114.7L332.213 109.56L334.462 106.989L337.675 104.098L341.209 101.206L343.458 98.957L346.028 96.708L350.205 92.8525L354.061 88.9971L356.631 86.748L360.165 83.5352L362.735 81.2861L366.591 77.752L372.053 72.6113L376.229 68.4346L379.764 65.543L382.013 63.2939L385.868 60.4023L387.475 58.7959H388.117L388.438 97.3506L388.76 118.556L389.081 133.335L386.832 136.869L384.904 139.439L379.764 146.187L372.053 156.468L368.519 161.608L364.663 167.07L360.486 173.175L356.31 178.958L352.133 185.062L347.635 191.488L336.711 207.874L332.534 214.942L329.964 219.119L325.466 225.545L322.574 230.364L320.325 233.898L317.755 238.396L315.185 242.573L311.329 249.32L308.438 254.461L304.582 261.208L300.727 268.598L297.835 273.417L293.337 282.092L291.088 286.911L297.192 284.02L306.831 279.521L317.434 274.06L325.145 269.562L335.426 264.1L342.173 260.244L349.241 256.389L358.237 250.927L365.306 246.75L372.695 242.252L379.442 238.075L387.475 232.935L394.864 228.115L402.575 223.296L417.997 213.015L425.387 207.874L430.849 204.019L436.953 199.842L442.415 195.986L446.913 192.773L489.645 194.38L506.352 195.344L520.488 195.665L522.095 195.986L520.81 197.914L517.918 201.127L492.536 226.509L490.287 229.079L480.327 239.039L478.078 241.609L475.508 244.501L473.259 247.071L470.367 249.642L467.476 250.605L460.407 251.569L449.162 252.854L439.523 254.461L425.387 257.031L412.856 258.959L395.828 262.493L382.013 265.063L370.125 267.955L355.988 270.847L343.779 274.06L334.141 276.309L311.65 282.734L300.727 286.269L292.694 288.196H291.409V288.839L294.622 289.803L301.048 292.052L308.438 294.943L327.715 301.048L344.743 305.867L351.49 307.795L355.988 308.759L370.446 312.614L381.691 315.185L389.402 317.112L416.069 322.896L436.311 326.751L445.307 328.679L460.086 330.928L464.584 331.892H467.154L469.725 333.819L475.829 339.924L478.078 342.494L481.934 346.35L484.825 349.884L488.681 354.061L490.93 356.631L495.428 361.45L500.247 366.27L502.496 368.84L505.388 371.731L507.637 374.302L510.528 377.515L512.777 380.085L515.669 383.298L520.167 388.117V388.76L488.681 389.081L482.576 389.402L465.548 389.724H444.664L441.451 387.153L436.953 383.94L430.849 379.442L424.423 374.623L418.318 370.125L412.535 365.948L408.68 363.378L404.182 360.165L398.72 356.31L374.623 340.245L367.233 335.426L362.735 332.534L356.31 328.679L346.671 322.253L337.675 316.791L330.285 312.614L325.145 309.401L317.434 304.903L308.116 300.084L292.694 292.373L291.73 291.73L292.694 294.622L298.156 305.225L309.401 327.715L313.257 334.141L318.076 343.137L321.932 349.884L327.394 358.88L331.57 365.948L337.032 374.944L341.209 381.691L347.956 391.973L351.49 397.435L355.024 403.218L362.093 413.82L367.555 421.853L371.731 427.636L376.872 435.025L380.406 440.166L384.583 445.949L385.226 447.234L384.583 465.227L383.298 484.504L382.977 493.179L382.334 522.095L379.442 520.167L376.872 517.918V517.275H376.229L373.98 514.705L369.804 510.85L357.595 498.641L355.024 496.392L351.812 493.5L343.779 485.468L341.209 483.219L337.996 480.006L335.426 477.757L333.819 476.472V475.829L332.534 475.187L329 471.331L327.715 469.725L326.751 464.263L324.823 448.52L320.646 425.387L319.04 414.784L315.506 397.113L313.257 384.583L311.329 376.551L308.759 364.984L307.152 356.631L304.903 348.599L302.012 336.711L299.441 327.715L296.871 317.755L293.016 306.188L291.088 298.156L289.803 293.979H288.518L286.59 298.478L283.056 308.438L279.521 319.04L276.63 328.679L273.096 340.888L270.847 348.599L267.955 360.486L264.742 373.017L259.923 392.615L256.067 410.286L253.497 422.495L249.642 441.772L247.393 456.552L245.786 465.548L244.18 469.403L240.324 473.58L236.469 477.436L233.898 479.685L227.473 485.468L224.902 487.717L221.689 490.608L217.834 494.143L214.621 497.355L212.051 499.604L208.838 502.496L206.268 504.745L204.019 506.994L201.448 509.243L198.878 511.813L196.308 514.062L193.095 517.275L191.488 518.561L190.203 520.167H189.561L189.239 518.561L188.275 449.483V445.307L188.918 443.379L191.81 440.166L195.344 435.347L199.842 429.242L203.055 425.065L206.91 419.604L212.051 412.214L215.585 407.073L219.762 401.29L223.617 395.828L227.473 390.045L231.328 384.583L237.433 375.266L241.609 368.84L245.465 362.735L247.714 359.522L251.569 353.097L255.425 346.992L259.923 339.281L265.063 330.606L271.489 319.683L274.702 313.899L280.485 303.618L284.02 296.55L287.554 291.088H286.911L279.521 294.622L255.746 306.51L250.605 309.401L243.858 312.936L238.396 316.148L220.404 326.43L215.906 329.321L210.766 332.213L206.268 335.104L199.842 338.96L195.022 342.173L189.239 345.707L183.135 349.562L174.139 355.667L168.355 359.522L154.219 368.84L147.15 373.659L143.616 376.229L138.797 379.764L131.729 384.583L129.801 385.547H124.018L101.849 384.583L82.5713 383.619L64.9004 382.977L58.4746 382.334L55.583 381.37L56.8682 379.764L59.4385 377.515L60.4023 377.193L61.0449 375.908L63.6152 373.338L66.5068 369.804H67.1494L67.792 368.519L81.6074 354.703L83.8564 352.133L105.704 330.285L107.953 328.679L116.307 326.751L137.19 323.538L153.255 320.968L163.215 319.04L179.601 316.148L205.304 310.687L219.119 307.474L231.649 304.582L248.999 300.084L263.136 296.229L279.2 291.088L284.983 289.16L285.626 288.518L271.811 284.02L256.067 278.879L242.573 275.023L224.26 269.883L201.77 264.1L192.131 261.851L177.994 258.638L151.97 253.176L124.66 248.035L109.881 245.465L107.953 244.18L103.455 239.682L101.206 237.111L95.4229 231.328L93.1738 228.758L89.9609 225.224L87.7119 222.653L84.8203 219.44L83.2139 217.834L77.4307 211.408L71.9688 205.946L69.7197 203.376L66.1855 199.521L63.6152 196.308L60.0811 192.452L57.832 190.203V189.882L62.0088 189.561L91.2461 189.239L130.443 188.597H132.692L136.227 190.846L140.725 194.38L145.223 197.593L151.327 202.091L157.11 206.268L162.251 209.802L173.817 218.155L177.673 220.726L187.954 227.794L198.878 235.184L207.553 240.967L213.979 245.144L218.477 247.714L223.296 250.927L230.364 255.425L238.718 260.244L247.714 265.385L252.212 268.276L257.353 271.168L264.421 275.345L270.847 278.879L278.236 282.413L283.377 284.983L286.269 286.911L287.554 287.232V285.947L286.59 285.626L282.734 279.2L276.951 266.991L270.847 254.782L266.349 247.071L262.493 239.682L257.353 231.007L251.891 221.689L246.429 212.693L241.609 204.661L238.396 199.521L235.505 194.701L231.971 188.918L227.794 182.813L218.477 168.998L209.159 154.861L203.376 146.187L199.842 141.367L195.022 134.941V134.299L194.059 133.978L192.773 131.729V113.094L193.737 88.6758L194.701 70.6836L195.022 60.7236L195.344 56.2256Z" fill="#7C4D94"></path>
<path d="M85.4629 84.8203L98.3145 89.6396L108.274 93.4951L114.058 95.7441L123.375 99.2783L128.194 101.206L130.765 105.383L135.584 113.415L140.403 120.805L143.938 126.588L147.15 131.407L153.255 140.403L156.789 145.544L161.287 151.648L165.143 157.11L169.962 163.536L172.532 167.07L175.103 170.283L179.279 175.745L183.456 180.564L187.312 185.062L191.167 189.239L192.452 191.167L190.846 191.81L187.312 189.561L183.777 186.026L181.207 183.777L177.673 180.564L172.532 176.709L168.355 173.496L164.821 170.604L160.645 167.392L154.54 162.894L150.685 160.323L144.259 155.825L138.797 151.97L132.692 147.793L126.909 143.938L119.198 139.118L108.596 132.05L103.134 128.837L100.885 126.267L99.2783 123.054L94.459 109.881L90.2822 98.957L87.7119 93.1738L85.4629 86.4268V84.8203Z" fill="#7C4D94"></path>
<path d="M289.803 0L291.088 1.28516L293.979 7.71094L297.192 14.458L300.727 22.8115L303.297 28.2734L305.546 33.7354L308.116 38.876L309.08 41.4463L308.759 44.6592L307.795 48.8359L306.188 54.2979L303.939 63.9365L302.012 73.2539L299.12 87.3906L296.229 105.062L293.979 117.271L293.016 126.909L292.052 142.652L291.088 150.363L290.124 152.612L289.16 151.97L288.839 149.721L287.875 134.941L285.947 114.7L284.662 106.989L281.771 91.2461L280.164 81.6074L276.309 63.6152L272.774 46.9082L271.811 43.6953V41.125L273.417 37.2695L278.879 25.7031L282.413 17.3496L286.269 9.31738L289.16 0.642578L289.803 0Z" fill="#7C4D94"></path>
<path d="M41.4463 268.598L44.6592 269.24L52.0488 271.168L59.7598 273.096L75.5029 276.309L86.4268 278.558L102.491 281.128L117.592 283.698L128.837 284.983L144.58 286.269L149.078 286.911L149.721 287.554L150.363 288.518L151.006 288.839L150.685 289.16L127.23 290.767L115.985 291.73L107.632 293.016L90.2822 296.229L79.6797 297.835L68.1133 300.405L57.1895 302.654L47.2295 304.903L42.7314 306.188L40.4824 305.867L32.7715 302.333L26.0244 299.441L13.1729 293.658L2.57031 289.16L0 287.554V286.911L11.2451 282.092L19.5986 278.558L32.4502 272.774L40.4824 268.919L41.4463 268.598Z" fill="#7C4D94"></path>
<path d="M386.511 387.796L387.796 388.117L389.724 389.402L391.33 390.366L394.222 392.615L395.186 392.937L396.792 394.543L400.969 398.077L404.182 400.647L412.535 407.073L421.531 413.82L427.636 418.318L431.491 421.21L434.704 423.459L440.809 427.314L454.303 436.311L458.479 439.202L468.118 445.307L474.865 449.162L476.472 450.769L481.291 462.656L484.825 472.295L488.359 481.612L491.894 490.287L492.857 493.179L489.966 492.536L483.54 490.287L475.187 486.753L465.548 483.219L458.158 480.327L453.018 478.399L449.805 476.472L447.556 473.58L444.021 467.797L441.13 462.978L437.917 458.158L434.383 452.696L430.206 445.949L426.351 440.487L423.138 435.989L419.925 431.17L416.069 425.708L411.893 419.925L407.395 413.499L403.86 409.322L400.326 404.824L397.113 400.647L393.258 396.149L391.009 393.579L387.796 390.045L386.511 388.438V387.796Z" fill="#7C4D94"></path>
<path d="M492.857 85.4629H493.5L493.179 87.3906L490.608 92.21L487.074 102.17L485.146 107.311L483.54 111.166L480.97 117.913L478.399 124.018L477.114 127.23L475.508 128.837L471.331 131.729L467.154 134.299L462.656 136.869L457.837 140.082L448.52 146.187L442.736 150.042L435.668 154.861L427.636 160.323L421.853 164.5L415.748 168.998L411.571 172.211L400.005 181.207L396.792 183.777L392.937 187.312L389.724 190.203L386.832 192.131H384.904L385.547 190.846L390.045 186.348L392.294 183.777L396.149 179.279L398.72 176.066L401.933 171.89L405.788 167.392L410.286 161.287L413.82 156.468L417.676 151.006L422.174 144.58L426.351 138.797L430.527 132.692L434.062 127.552L437.917 121.447L441.451 115.985L446.592 107.311L450.126 101.849L458.158 98.3145L471.331 93.4951L483.219 88.9971L490.93 86.1055L492.857 85.4629Z" fill="#7C4D94"></path>
<path d="M287.232 424.744L287.875 426.029L288.518 436.311L290.124 448.841L291.73 460.407L293.979 478.078L297.835 497.355L299.763 508.279L303.297 522.737L304.903 531.412L305.225 534.304V537.517L304.582 540.408L301.048 547.798L299.441 550.689L297.514 555.83L293.658 563.862L290.445 571.573L287.554 577.035L286.59 576.714L281.449 565.469L276.63 554.866L274.381 549.726L270.847 542.015L269.562 537.195V532.697L271.168 523.701L273.417 514.705L276.309 500.568L278.879 487.074L280.807 476.793L283.377 459.122L285.626 442.736L286.269 435.025L286.911 425.065L287.232 424.744Z" fill="#7C4D94"></path>
<path d="M186.669 389.081L188.597 389.402L188.918 390.688L185.062 395.186L182.171 398.398L178.637 402.575L175.103 407.073L169.962 413.499L166.106 418.64L162.251 424.102L159.359 427.957L155.183 433.74L151.97 438.238L148.114 444.343L145.544 447.877L142.331 453.018L135.584 463.299L131.407 470.046L127.873 475.508L125.303 477.114L120.805 479.363L112.451 481.934L105.062 485.146L97.9932 487.717L88.9971 491.251L86.4268 492.215H85.1416L85.4629 489.645L89.6396 478.721L92.5312 470.688L95.4229 463.62L96.708 460.086L99.5996 452.054L101.527 449.483L104.74 447.234L110.845 443.7L115.021 441.13L122.732 436.311L143.938 422.174L148.757 418.64L160.323 410.286L164.5 407.073L170.283 402.575L174.139 399.684L178.637 395.828L181.207 393.579L185.705 389.724L186.669 389.081Z" fill="#7C4D94"></path>
<path d="M534.946 272.132L536.553 272.453L546.513 276.309L554.866 280.164L562.898 283.698L574.465 288.839L577.035 290.124L576.714 291.088L569.003 294.943L560.328 298.478L553.581 301.69L547.155 304.261L539.444 308.116L535.589 308.759L530.448 308.116L518.561 305.225L503.781 302.012L492.215 299.763L478.399 297.192L446.592 292.694L440.166 292.052L425.065 291.409L425.387 290.445L441.13 288.839L453.981 286.911L476.15 284.02L490.608 281.449L516.312 276.309L534.304 272.453L534.946 272.132Z" fill="#7C4D94"></path>
</svg></svg></g></g></svg></g><g id="dark-icon"><svg xmlns="http://www.w3.org/2000/svg" version="1.1" xmlns:xlink="http://www.w3.org/1999/xlink" width="1000" height="1000"><g clip-path="url(#SvgjsClipPath1015)"><rect width="1000" height="1000" fill="#7c4d94"></rect><g transform="matrix(1.2131715771230502,0,0,1.2131715771230502,150,150.60658578856152)"><svg xmlns="http://www.w3.org/2000/svg" version="1.1" xmlns:xlink="http://www.w3.org/1999/xlink" width="577" height="576"><svg width="577" height="576" viewBox="0 0 577 576" fill="none" xmlns="http://www.w3.org/2000/svg">
<path d="M195.574 54.6431L198.565 56.8887L201.183 59.5086L204.175 62.1284L213.897 71.8594L216.889 74.4793L222.498 79.7191L231.099 88.3273L234.09 90.9472L240.074 96.9355L242.317 98.8068L244.935 101.801L250.17 107.041L252.04 122.011L256.153 147.462L259.519 166.175L265.876 197.614L269.241 212.959L273.355 230.175L277.468 245.52L280.46 257.123L283.825 267.976L288.313 281.45L289.061 282.947L293.548 271.345L298.035 257.871L301.401 247.017L308.132 223.064L314.115 199.111L318.602 180.772L321.968 164.678L325.707 146.713L328.699 130.62L330.569 119.766L332.812 108.164L335.43 105.169L339.917 101.052L342.909 98.4325L347.77 93.567L350.762 90.9472L353.005 88.7015H353.753V87.953L357.867 84.5846L363.85 78.9706L368.337 74.8536L373.199 69.9881L377.312 66.6197L380.304 63.6255L383.295 61.0056L385.913 58.3858L388.156 56.8887L388.53 57.2629L388.904 84.2103L389.278 132.117L387.035 135.111L383.295 139.976L378.808 145.965L375.816 150.082L372.451 154.573L367.963 160.935L364.972 165.052L359.737 172.538L355.249 179.275L350.762 185.637L345.9 192.374L333.934 211.088L329.447 218.199L324.959 224.935L322.716 229.427L320.472 232.795L317.854 237.286L315.611 240.655L312.245 246.643L309.628 250.76L304.392 259.742L300.279 267.976L296.539 274.713L292.8 281.824L291.304 284.819L298.783 281.45L319.724 270.971L326.829 267.228L330.569 265.357L338.422 260.865L346.648 256.374L352.258 253.006L359.363 248.889L380.304 236.164L389.278 230.55L436.396 199.111L441.257 195.368L446.492 192L447.614 190.877L454.345 191.626L521.282 193.871L522.403 194.245L521.656 195.742L518.664 198.737L516.046 201.731L504.828 212.959L502.21 215.953L470.051 248.14L451.727 250.76L421.438 256L404.984 258.994L376.938 264.608L351.884 270.222L327.951 276.21L312.619 280.702L298.409 284.819L292.426 286.69L292.052 287.438L295.792 288.561L304.766 291.93L317.107 295.672L329.447 299.789L350.014 305.403L364.224 309.146L379.556 312.889L399.001 317.38L420.316 321.871L435.274 324.865L458.832 329.357L469.677 331.602L471.921 333.473L474.912 337.216L477.53 340.21L482.765 345.824L486.878 350.316L494.357 357.801L496.975 360.795L500.341 364.538L504.454 369.029L507.446 372.023L510.063 375.017L514.924 380.257L517.542 383.251L519.412 385.871L519.038 386.62L479.4 386.994L456.963 387.368H444.622L440.509 384L436.396 381.006L423.681 371.649L417.698 367.532L413.211 364.164L408.724 361.169L401.993 356.304L382.921 343.579L373.573 337.59L369.459 334.596L365.72 331.976L359.363 328.234L351.51 323.368L347.396 320.748L330.569 310.643L321.22 305.403L312.993 300.912L306.636 297.169L298.783 293.052L292.8 290.433L290.556 289.684L293.922 294.924L306.262 319.626L309.628 325.988L311.871 329.731L316.359 338.339L319.724 343.953L323.838 351.438L326.829 356.304L330.943 363.041L333.934 368.28L338.795 375.766L342.161 381.38L344.779 385.123L348.892 391.859L357.119 404.585L366.094 418.058L372.077 426.666L376.938 433.403L379.556 437.52L382.921 442.011L384.791 443.883L385.165 445.006L384.791 461.099L382.921 517.24L382.547 519.859L380.678 518.737L375.816 514.245L369.085 507.509L366.094 504.889L362.354 501.146L359.363 498.526L351.884 491.041L348.892 488.421L330.195 469.707L328.325 465.965L326.829 458.105L324.212 440.889L322.716 431.158L319.724 414.69L317.854 404.959L315.985 395.602L312.993 379.883L310.002 366.409L307.01 353.31L305.514 346.947L303.644 340.585L298.035 318.128L292.8 300.912L290.182 293.801L289.434 291.555L286.817 297.169L282.33 309.146L279.338 318.877L276.72 327.859L273.355 338.713L270.737 348.444L266.25 365.661L262.884 379.509L259.145 395.602L254.657 416.187L251.666 431.158L249.048 445.006L247.178 455.111L245.683 465.216L244.561 467.088L233.716 477.941L229.603 481.31L223.246 487.298L219.506 490.666L215.767 494.409L211.654 497.778L205.67 503.392L200.809 507.883L191.834 516.865L190.339 517.988H189.591L189.217 509.006L188.843 485.052L188.469 443.883L190.339 440.14L192.208 437.895L194.078 436.023L197.07 431.532L198.939 429.286L200.435 426.666L203.053 423.672L206.792 418.433L209.41 414.69L212.401 410.947L213.149 409.076H213.897L214.645 407.579L218.011 402.713L220.628 398.971L223.994 393.731L226.985 388.865L229.603 385.871L232.221 381.754L238.952 371.649L244.561 363.041L249.048 355.93L252.04 351.064L256.153 344.702L262.51 333.848L265.502 328.982L268.493 323.742L271.859 318.128L275.598 311.017L278.59 306.152L282.33 299.041L285.321 292.678L286.443 289.684L281.956 291.555L256.527 304.28L250.544 307.649L248.674 308.772L236.708 315.134L233.716 317.006L226.985 320.748L221.002 324.491L215.767 327.485L207.166 332.725L201.183 336.468L189.591 343.579L176.503 352.187L170.145 356.304L166.78 358.55L160.797 362.292L158.179 364.538L154.066 367.158L141.725 375.392L137.238 378.76L133.873 381.38L132.377 382.503L130.507 382.877L106.574 382.503L81.894 381.754L57.5874 380.631L55.3438 380.257L56.4656 378.386L62.8227 372.397L79.6503 355.555L82.2679 352.561L87.8771 346.947L90.4948 343.953L93.1124 341.707L95.73 338.713L98.3476 336.093L101.713 331.976L105.453 328.608L107.322 326.737L124.15 323.742L143.595 320.748L167.154 316.631L199.313 310.269L232.221 302.783L237.456 301.286L246.805 299.041L261.762 294.924L275.598 290.807L284.573 287.438L286.069 287.064L278.216 284.444L262.884 279.204L252.788 275.836L241.569 272.842L231.099 269.848L203.801 262.737L185.851 258.62L162.293 253.38L152.57 251.509L143.221 249.637L128.637 247.017L121.906 245.52L115.549 244.772L109.566 243.649L106.574 241.029L101.339 235.415L94.6082 227.93L86.0074 219.321L83.3898 216.327L78.9024 211.088L74.415 206.222L68.4319 200.234L65.8143 197.24L61.3269 192.374L58.3353 188.631V187.883H69.1798L117.045 187.509H133.125L137.238 190.128L148.457 198.737L154.44 202.854L161.171 207.719L166.032 211.088L173.137 215.953L177.25 218.947L185.851 224.935L193.704 230.175L198.939 233.544L204.175 237.286L212.775 242.9L228.107 252.257L235.96 257.123L245.309 262.737L258.397 270.222L268.867 275.836L277.094 280.327L282.33 282.947L286.817 284.819L283.451 277.333L275.225 260.865L271.485 253.754L265.876 244.023L262.136 236.912L257.649 229.052L253.91 222.316L250.918 217.45L245.683 208.842L241.195 201.731L235.586 192.748L230.725 185.263L227.359 180.023L225.116 176.655L221.75 171.415L212.775 157.941L207.914 150.83L203.801 144.842L199.313 138.479L194.452 131.742L192.956 129.871L192.582 128.374V122.011L194.078 93.1928L195.2 55.3916L195.574 54.6431Z" fill="#FEFEFE"></path>
<path d="M287.566 422.924L288.313 423.673L288.687 425.544L290.183 446.129L291.679 458.854L293.923 472.702L295.418 482.807L299.906 506.386L302.897 519.485L305.141 529.216L306.263 532.211V534.831L304.767 536.702L301.775 544.562L295.792 557.287L290.931 568.515L288.313 576H287.192L283.826 567.766L279.713 558.784L276.347 551.298L269.99 536.702L268.868 534.456V531.462L270.738 525.848L275.225 506.012L278.591 488.421L281.582 471.205L284.574 450.62L285.696 439.018L286.444 426.292L286.818 423.673L287.566 422.924Z" fill="#FEFEFE"></path>
<path d="M40.7602 266.854L44.1257 267.602L68.8062 273.216L93.8607 278.082L115.176 281.45L127.142 282.947L150.327 285.193L151.448 286.316L148.831 287.064L132.003 288.187L120.411 289.31L87.8775 294.55L61.7012 299.789L49.7349 302.409L43.3778 304.281H41.1342L31.0376 299.789L17.9494 293.801L6.3571 288.936L0 285.941L0.373947 284.819L8.22683 281.825L23.1847 275.088L35.151 269.848L40.3863 267.228L40.7602 266.854Z" fill="#FEFEFE"></path>
<path d="M490.992 84.959H492.862L492.488 87.2046L490.244 93.1929L485.757 104.795L479.774 120.515L476.782 126.877L474.912 128.374L472.295 129.497L468.555 132.117L465.19 133.614H464.442L464.068 134.737L457.337 138.854L449.11 144.093L445.37 146.713L440.509 150.082L433.778 154.573L426.673 159.439L422.934 162.433L418.446 165.427L415.455 167.672L411.715 170.667L403.862 176.655L398.627 180.772L393.766 185.263L390.4 187.883L386.661 191.626H384.791L385.539 190.129L387.783 188.257L390.774 184.515L395.635 178.526L399.375 174.409L401.993 171.041L405.358 166.924L406.854 164.678L410.219 160.936L411.715 157.567L413.585 155.696L416.576 151.579L419.194 147.836L424.429 140.725L427.421 136.234L431.908 129.871L436.022 123.134L440.135 116.772L444.249 110.035L447.988 104.421L450.606 100.304L454.345 98.4327L468.181 93.1929L477.156 89.8245L485.009 86.8303L489.122 85.3333L490.992 84.959Z" fill="#FEFEFE"></path>
<path d="M191.46 383.251H192.208L191.46 385.497L188.095 389.614L183.608 394.105L179.868 398.971L175.007 404.959L172.763 408.327L171.267 409.825L167.528 414.69L164.91 418.433L159.675 425.544L155.562 431.158L151.822 436.772L149.204 440.515L143.969 448.374L140.604 453.24L136.49 459.602L133.873 464.094L130.507 469.333L127.889 473.825L124.524 475.696L114.801 479.439L98.7216 485.427L88.2511 489.544L84.1377 491.415L84.8856 489.17L89.373 477.567L94.6082 464.094L98.3477 454.363L101.339 447.626L108.818 443.135L111.81 441.263L119.289 436.772L124.898 433.029L128.637 430.409L145.091 419.556L151.448 415.064L154.066 412.819L158.927 409.825L165.658 404.585L170.519 400.842L175.755 396.725L180.616 392.608H181.364V391.86L184.355 389.614L186.225 387.743L191.086 383.626L191.46 383.251Z" fill="#FEFEFE"></path>
<path d="M533.623 270.596H538.11L566.156 283.322L574.383 287.064L577 288.561L576.626 290.058L567.278 293.801L557.181 298.292L548.58 302.035L544.093 304.281L536.988 306.901L533.249 306.526L524.274 304.655L509.69 301.286L484.262 296.421L466.686 293.427L454.72 291.93L436.77 290.058L431.161 289.684L426.3 288.187V287.439H438.266L448.363 286.316L474.165 282.573L505.203 276.959L525.77 272.468L533.623 270.596Z" fill="#FEFEFE"></path>
<path d="M290.183 0H290.931L293.922 5.61404L298.036 14.9708L303.271 26.9474L306.636 34.4327L308.88 38.924V41.5439L301.401 75.9766L299.157 86.8304L295.418 108.912L292.426 132.865L290.931 145.216L290.557 150.456L289.809 150.83L288.313 131.368L286.069 114.901L284.948 105.17L281.956 88.3275L279.338 74.1053L275.599 56.1404L272.981 46.7836L271.859 40.7953L272.233 38.5497L274.851 33.6842L276.347 30.3158L281.208 19.0877L284.574 11.6023L289.809 0.748538L290.183 0Z" fill="#FEFEFE"></path>
<path d="M384.791 382.877L386.661 383.626L389.652 386.62L394.888 390.737L400.123 395.602L405.358 399.719L410.967 404.211L416.203 407.953L422.186 412.444L426.299 415.439L431.534 419.181L436.022 422.175L445.37 428.538L455.467 435.275L462.946 439.766L468.181 443.135L473.042 446.503L475.286 447.626L478.278 452.491L486.505 474.199L492.488 489.544L492.862 491.041L490.244 490.667L481.269 486.924L473.416 483.93L468.929 482.058L462.946 479.813L455.841 477.193L450.98 475.322L449.11 473.076L445.37 467.088L440.509 459.228L421.064 430.035L416.576 423.673L412.089 417.684L406.854 410.573L394.514 394.854L390.774 390.737L388.157 387.743L384.791 383.626V382.877Z" fill="#FEFEFE"></path>
<path d="M85.2598 83.4619L97.974 87.9531L105.827 90.9473L115.549 94.69L122.654 97.6841L126.768 99.1812L128.638 100.304L132.003 106.667L134.621 110.409L139.108 117.895L143.595 125.006L148.457 132.117L153.318 138.854L158.553 146.713L163.415 153.45L167.154 158.69L170.894 163.555L175.007 168.795L182.486 178.152L185.478 181.146L189.591 186.386L191.835 189.38L193.33 190.877V191.626L191.461 190.877L185.851 186.012L182.112 182.643L179.12 180.023L176.503 177.403L172.389 174.784L167.528 170.667L162.293 166.924L158.927 164.678L152.57 159.813L146.587 155.696L140.604 151.205L128.264 142.971L119.289 137.357L111.436 132.491L106.575 129.123L103.209 127.251L101.339 125.38L97.2261 114.901L91.6169 100.304L87.8774 90.9473L85.6337 84.5847L85.2598 83.4619Z" fill="#FEFEFE"></path>
</svg></svg></g></g><defs><clipPath id="SvgjsClipPath1015"><rect width="1000" height="1000" x="0" y="0" rx="350" ry="350"></rect></clipPath></defs></svg></g></svg>