<svg width="578" height="578" viewBox="0 0 578 578" fill="none" xmlns="http://www.w3.org/2000/svg">
<path d="M195.344 56.2256L197.271 56.8682L200.163 59.7598L202.733 62.0088L204.982 64.5791L207.553 66.8281L215.585 74.8604L218.155 77.1094L225.224 84.1777L227.794 86.4268L231.649 89.9609L241.288 99.5996L243.858 101.849L247.071 104.74L249.32 107.311L250.927 116.307L252.212 123.696L255.104 144.259L257.353 155.504L259.28 166.428L260.887 175.745L264.1 190.846L266.027 200.806L269.24 213.979L272.132 227.794L275.666 240.967L278.236 251.248L283.377 268.919L287.232 280.164L289.16 284.662L289.481 284.983L291.409 279.521L293.979 271.489L298.478 257.674L301.369 248.035L303.618 240.003L306.188 231.007L308.116 224.581L310.687 213.015L312.936 204.982L315.506 193.737L319.683 176.388L322.896 160.323L324.823 151.648L327.715 135.263L329.643 127.23L331.57 114.7L332.213 109.56L334.462 106.989L337.675 104.098L341.209 101.206L343.458 98.957L346.028 96.708L350.205 92.8525L354.061 88.9971L356.631 86.748L360.165 83.5352L362.735 81.2861L366.591 77.752L372.053 72.6113L376.229 68.4346L379.764 65.543L382.013 63.2939L385.868 60.4023L387.475 58.7959H388.117L388.438 97.3506L388.76 118.556L389.081 133.335L386.832 136.869L384.904 139.439L379.764 146.187L372.053 156.468L368.519 161.608L364.663 167.07L360.486 173.175L356.31 178.958L352.133 185.062L347.635 191.488L336.711 207.874L332.534 214.942L329.964 219.119L325.466 225.545L322.574 230.364L320.325 233.898L317.755 238.396L315.185 242.573L311.329 249.32L308.438 254.461L304.582 261.208L300.727 268.598L297.835 273.417L293.337 282.092L291.088 286.911L297.192 284.02L306.831 279.521L317.434 274.06L325.145 269.562L335.426 264.1L342.173 260.244L349.241 256.389L358.237 250.927L365.306 246.75L372.695 242.252L379.442 238.075L387.475 232.935L394.864 228.115L402.575 223.296L417.997 213.015L425.387 207.874L430.849 204.019L436.953 199.842L442.415 195.986L446.913 192.773L489.645 194.38L506.352 195.344L520.488 195.665L522.095 195.986L520.81 197.914L517.918 201.127L492.536 226.509L490.287 229.079L480.327 239.039L478.078 241.609L475.508 244.501L473.259 247.071L470.367 249.642L467.476 250.605L460.407 251.569L449.162 252.854L439.523 254.461L425.387 257.031L412.856 258.959L395.828 262.493L382.013 265.063L370.125 267.955L355.988 270.847L343.779 274.06L334.141 276.309L311.65 282.734L300.727 286.269L292.694 288.196H291.409V288.839L294.622 289.803L301.048 292.052L308.438 294.943L327.715 301.048L344.743 305.867L351.49 307.795L355.988 308.759L370.446 312.614L381.691 315.185L389.402 317.112L416.069 322.896L436.311 326.751L445.307 328.679L460.086 330.928L464.584 331.892H467.154L469.725 333.819L475.829 339.924L478.078 342.494L481.934 346.35L484.825 349.884L488.681 354.061L490.93 356.631L495.428 361.45L500.247 366.27L502.496 368.84L505.388 371.731L507.637 374.302L510.528 377.515L512.777 380.085L515.669 383.298L520.167 388.117V388.76L488.681 389.081L482.576 389.402L465.548 389.724H444.664L441.451 387.153L436.953 383.94L430.849 379.442L424.423 374.623L418.318 370.125L412.535 365.948L408.68 363.378L404.182 360.165L398.72 356.31L374.623 340.245L367.233 335.426L362.735 332.534L356.31 328.679L346.671 322.253L337.675 316.791L330.285 312.614L325.145 309.401L317.434 304.903L308.116 300.084L292.694 292.373L291.73 291.73L292.694 294.622L298.156 305.225L309.401 327.715L313.257 334.141L318.076 343.137L321.932 349.884L327.394 358.88L331.57 365.948L337.032 374.944L341.209 381.691L347.956 391.973L351.49 397.435L355.024 403.218L362.093 413.82L367.555 421.853L371.731 427.636L376.872 435.025L380.406 440.166L384.583 445.949L385.226 447.234L384.583 465.227L383.298 484.504L382.977 493.179L382.334 522.095L379.442 520.167L376.872 517.918V517.275H376.229L373.98 514.705L369.804 510.85L357.595 498.641L355.024 496.392L351.812 493.5L343.779 485.468L341.209 483.219L337.996 480.006L335.426 477.757L333.819 476.472V475.829L332.534 475.187L329 471.331L327.715 469.725L326.751 464.263L324.823 448.52L320.646 425.387L319.04 414.784L315.506 397.113L313.257 384.583L311.329 376.551L308.759 364.984L307.152 356.631L304.903 348.599L302.012 336.711L299.441 327.715L296.871 317.755L293.016 306.188L291.088 298.156L289.803 293.979H288.518L286.59 298.478L283.056 308.438L279.521 319.04L276.63 328.679L273.096 340.888L270.847 348.599L267.955 360.486L264.742 373.017L259.923 392.615L256.067 410.286L253.497 422.495L249.642 441.772L247.393 456.552L245.786 465.548L244.18 469.403L240.324 473.58L236.469 477.436L233.898 479.685L227.473 485.468L224.902 487.717L221.689 490.608L217.834 494.143L214.621 497.355L212.051 499.604L208.838 502.496L206.268 504.745L204.019 506.994L201.448 509.243L198.878 511.813L196.308 514.062L193.095 517.275L191.488 518.561L190.203 520.167H189.561L189.239 518.561L188.275 449.483V445.307L188.918 443.379L191.81 440.166L195.344 435.347L199.842 429.242L203.055 425.065L206.91 419.604L212.051 412.214L215.585 407.073L219.762 401.29L223.617 395.828L227.473 390.045L231.328 384.583L237.433 375.266L241.609 368.84L245.465 362.735L247.714 359.522L251.569 353.097L255.425 346.992L259.923 339.281L265.063 330.606L271.489 319.683L274.702 313.899L280.485 303.618L284.02 296.55L287.554 291.088H286.911L279.521 294.622L255.746 306.51L250.605 309.401L243.858 312.936L238.396 316.148L220.404 326.43L215.906 329.321L210.766 332.213L206.268 335.104L199.842 338.96L195.022 342.173L189.239 345.707L183.135 349.562L174.139 355.667L168.355 359.522L154.219 368.84L147.15 373.659L143.616 376.229L138.797 379.764L131.729 384.583L129.801 385.547H124.018L101.849 384.583L82.5713 383.619L64.9004 382.977L58.4746 382.334L55.583 381.37L56.8682 379.764L59.4385 377.515L60.4023 377.193L61.0449 375.908L63.6152 373.338L66.5068 369.804H67.1494L67.792 368.519L81.6074 354.703L83.8564 352.133L105.704 330.285L107.953 328.679L116.307 326.751L137.19 323.538L153.255 320.968L163.215 319.04L179.601 316.148L205.304 310.687L219.119 307.474L231.649 304.582L248.999 300.084L263.136 296.229L279.2 291.088L284.983 289.16L285.626 288.518L271.811 284.02L256.067 278.879L242.573 275.023L224.26 269.883L201.77 264.1L192.131 261.851L177.994 258.638L151.97 253.176L124.66 248.035L109.881 245.465L107.953 244.18L103.455 239.682L101.206 237.111L95.4229 231.328L93.1738 228.758L89.9609 225.224L87.7119 222.653L84.8203 219.44L83.2139 217.834L77.4307 211.408L71.9688 205.946L69.7197 203.376L66.1855 199.521L63.6152 196.308L60.0811 192.452L57.832 190.203V189.882L62.0088 189.561L91.2461 189.239L130.443 188.597H132.692L136.227 190.846L140.725 194.38L145.223 197.593L151.327 202.091L157.11 206.268L162.251 209.802L173.817 218.155L177.673 220.726L187.954 227.794L198.878 235.184L207.553 240.967L213.979 245.144L218.477 247.714L223.296 250.927L230.364 255.425L238.718 260.244L247.714 265.385L252.212 268.276L257.353 271.168L264.421 275.345L270.847 278.879L278.236 282.413L283.377 284.983L286.269 286.911L287.554 287.232V285.947L286.59 285.626L282.734 279.2L276.951 266.991L270.847 254.782L266.349 247.071L262.493 239.682L257.353 231.007L251.891 221.689L246.429 212.693L241.609 204.661L238.396 199.521L235.505 194.701L231.971 188.918L227.794 182.813L218.477 168.998L209.159 154.861L203.376 146.187L199.842 141.367L195.022 134.941V134.299L194.059 133.978L192.773 131.729V113.094L193.737 88.6758L194.701 70.6836L195.022 60.7236L195.344 56.2256Z" fill="#7C4D94"/>
<path d="M85.4629 84.8203L98.3145 89.6396L108.274 93.4951L114.058 95.7441L123.375 99.2783L128.194 101.206L130.765 105.383L135.584 113.415L140.403 120.805L143.938 126.588L147.15 131.407L153.255 140.403L156.789 145.544L161.287 151.648L165.143 157.11L169.962 163.536L172.532 167.07L175.103 170.283L179.279 175.745L183.456 180.564L187.312 185.062L191.167 189.239L192.452 191.167L190.846 191.81L187.312 189.561L183.777 186.026L181.207 183.777L177.673 180.564L172.532 176.709L168.355 173.496L164.821 170.604L160.645 167.392L154.54 162.894L150.685 160.323L144.259 155.825L138.797 151.97L132.692 147.793L126.909 143.938L119.198 139.118L108.596 132.05L103.134 128.837L100.885 126.267L99.2783 123.054L94.459 109.881L90.2822 98.957L87.7119 93.1738L85.4629 86.4268V84.8203Z" fill="#7C4D94"/>
<path d="M289.803 0L291.088 1.28516L293.979 7.71094L297.192 14.458L300.727 22.8115L303.297 28.2734L305.546 33.7354L308.116 38.876L309.08 41.4463L308.759 44.6592L307.795 48.8359L306.188 54.2979L303.939 63.9365L302.012 73.2539L299.12 87.3906L296.229 105.062L293.979 117.271L293.016 126.909L292.052 142.652L291.088 150.363L290.124 152.612L289.16 151.97L288.839 149.721L287.875 134.941L285.947 114.7L284.662 106.989L281.771 91.2461L280.164 81.6074L276.309 63.6152L272.774 46.9082L271.811 43.6953V41.125L273.417 37.2695L278.879 25.7031L282.413 17.3496L286.269 9.31738L289.16 0.642578L289.803 0Z" fill="#7C4D94"/>
<path d="M41.4463 268.598L44.6592 269.24L52.0488 271.168L59.7598 273.096L75.5029 276.309L86.4268 278.558L102.491 281.128L117.592 283.698L128.837 284.983L144.58 286.269L149.078 286.911L149.721 287.554L150.363 288.518L151.006 288.839L150.685 289.16L127.23 290.767L115.985 291.73L107.632 293.016L90.2822 296.229L79.6797 297.835L68.1133 300.405L57.1895 302.654L47.2295 304.903L42.7314 306.188L40.4824 305.867L32.7715 302.333L26.0244 299.441L13.1729 293.658L2.57031 289.16L0 287.554V286.911L11.2451 282.092L19.5986 278.558L32.4502 272.774L40.4824 268.919L41.4463 268.598Z" fill="#7C4D94"/>
<path d="M386.511 387.796L387.796 388.117L389.724 389.402L391.33 390.366L394.222 392.615L395.186 392.937L396.792 394.543L400.969 398.077L404.182 400.647L412.535 407.073L421.531 413.82L427.636 418.318L431.491 421.21L434.704 423.459L440.809 427.314L454.303 436.311L458.479 439.202L468.118 445.307L474.865 449.162L476.472 450.769L481.291 462.656L484.825 472.295L488.359 481.612L491.894 490.287L492.857 493.179L489.966 492.536L483.54 490.287L475.187 486.753L465.548 483.219L458.158 480.327L453.018 478.399L449.805 476.472L447.556 473.58L444.021 467.797L441.13 462.978L437.917 458.158L434.383 452.696L430.206 445.949L426.351 440.487L423.138 435.989L419.925 431.17L416.069 425.708L411.893 419.925L407.395 413.499L403.86 409.322L400.326 404.824L397.113 400.647L393.258 396.149L391.009 393.579L387.796 390.045L386.511 388.438V387.796Z" fill="#7C4D94"/>
<path d="M492.857 85.4629H493.5L493.179 87.3906L490.608 92.21L487.074 102.17L485.146 107.311L483.54 111.166L480.97 117.913L478.399 124.018L477.114 127.23L475.508 128.837L471.331 131.729L467.154 134.299L462.656 136.869L457.837 140.082L448.52 146.187L442.736 150.042L435.668 154.861L427.636 160.323L421.853 164.5L415.748 168.998L411.571 172.211L400.005 181.207L396.792 183.777L392.937 187.312L389.724 190.203L386.832 192.131H384.904L385.547 190.846L390.045 186.348L392.294 183.777L396.149 179.279L398.72 176.066L401.933 171.89L405.788 167.392L410.286 161.287L413.82 156.468L417.676 151.006L422.174 144.58L426.351 138.797L430.527 132.692L434.062 127.552L437.917 121.447L441.451 115.985L446.592 107.311L450.126 101.849L458.158 98.3145L471.331 93.4951L483.219 88.9971L490.93 86.1055L492.857 85.4629Z" fill="#7C4D94"/>
<path d="M287.232 424.744L287.875 426.029L288.518 436.311L290.124 448.841L291.73 460.407L293.979 478.078L297.835 497.355L299.763 508.279L303.297 522.737L304.903 531.412L305.225 534.304V537.517L304.582 540.408L301.048 547.798L299.441 550.689L297.514 555.83L293.658 563.862L290.445 571.573L287.554 577.035L286.59 576.714L281.449 565.469L276.63 554.866L274.381 549.726L270.847 542.015L269.562 537.195V532.697L271.168 523.701L273.417 514.705L276.309 500.568L278.879 487.074L280.807 476.793L283.377 459.122L285.626 442.736L286.269 435.025L286.911 425.065L287.232 424.744Z" fill="#7C4D94"/>
<path d="M186.669 389.081L188.597 389.402L188.918 390.688L185.062 395.186L182.171 398.398L178.637 402.575L175.103 407.073L169.962 413.499L166.106 418.64L162.251 424.102L159.359 427.957L155.183 433.74L151.97 438.238L148.114 444.343L145.544 447.877L142.331 453.018L135.584 463.299L131.407 470.046L127.873 475.508L125.303 477.114L120.805 479.363L112.451 481.934L105.062 485.146L97.9932 487.717L88.9971 491.251L86.4268 492.215H85.1416L85.4629 489.645L89.6396 478.721L92.5312 470.688L95.4229 463.62L96.708 460.086L99.5996 452.054L101.527 449.483L104.74 447.234L110.845 443.7L115.021 441.13L122.732 436.311L143.938 422.174L148.757 418.64L160.323 410.286L164.5 407.073L170.283 402.575L174.139 399.684L178.637 395.828L181.207 393.579L185.705 389.724L186.669 389.081Z" fill="#7C4D94"/>
<path d="M534.946 272.132L536.553 272.453L546.513 276.309L554.866 280.164L562.898 283.698L574.465 288.839L577.035 290.124L576.714 291.088L569.003 294.943L560.328 298.478L553.581 301.69L547.155 304.261L539.444 308.116L535.589 308.759L530.448 308.116L518.561 305.225L503.781 302.012L492.215 299.763L478.399 297.192L446.592 292.694L440.166 292.052L425.065 291.409L425.387 290.445L441.13 288.839L453.981 286.911L476.15 284.02L490.608 281.449L516.312 276.309L534.304 272.453L534.946 272.132Z" fill="#7C4D94"/>
</svg>
