<svg viewBox="0 0 488 191" fill="none" xmlns="http://www.w3.org/2000/svg">
<path d="M64.6596 18.6108L65.2977 18.8235L66.2548 19.7807L67.1056 20.5251L67.85 21.3759L68.7008 22.1203L71.3595 24.779L72.2102 25.5234L74.5499 27.8631L75.4007 28.6075L76.6768 29.7773L79.8673 32.9677L80.718 33.7122L81.7815 34.6693L82.5259 35.5201L83.0577 38.4978L83.4831 40.9438L84.4402 47.75L85.1846 51.4722L85.8227 55.088L86.3545 58.1721L87.4179 63.1704L88.056 66.4672L89.1195 70.8274L90.0766 75.4004L91.2464 79.7606L92.0972 83.1637L93.7988 89.0129L95.0749 92.735L95.713 94.2239L95.8194 94.3302L96.4575 92.5223L97.3082 89.8636L98.7971 85.2907L99.7542 82.1003L100.499 79.4416L101.349 76.4639L101.988 74.3369L102.838 70.5084L103.583 67.8497L104.434 64.1275L105.816 58.3848L106.88 53.0674L107.518 50.196L108.475 44.7723L109.113 42.1136L109.751 37.9661L109.964 36.2645L110.708 35.4137L111.771 34.4566L112.941 33.4995L113.686 32.7551L114.537 32.0106L115.919 30.7344L117.195 29.4583L118.046 28.7138L119.216 27.6504L120.067 26.9059L121.343 25.7361L123.151 24.0346L124.533 22.652L125.703 21.6949L126.447 20.9505L127.724 19.9934L128.255 19.4616H128.468L128.574 32.2233L128.681 39.2422L128.787 44.1342L128.043 45.304L127.405 46.1548L125.703 48.3881L123.151 51.7912L121.981 53.4928L120.705 55.3007L119.322 57.3213L117.94 59.2356L116.557 61.2562L115.068 63.3831L111.452 68.8068L110.07 71.1465L109.219 72.529L107.73 74.6559L106.773 76.2512L106.029 77.421L105.178 78.9098L104.327 80.2924L103.051 82.5257L102.094 84.2272L100.818 86.4605L99.5415 88.9065L98.5844 90.5017L97.0955 93.3731L96.3511 94.9683L98.3717 94.0112L101.562 92.5223L105.072 90.7144L107.624 89.2255L111.027 87.4176L113.26 86.1415L115.6 84.8653L118.578 83.0574L120.917 81.6749L123.363 80.186L125.597 78.8035L128.255 77.1019L130.701 75.5067L133.254 73.9115L138.358 70.5084L140.804 68.8068L142.612 67.5307L144.633 66.1481L146.441 64.872L147.93 63.8085L162.074 64.3402L167.604 64.6593L172.283 64.7656L172.815 64.872L172.39 65.5101L171.432 66.5735L163.031 74.975L162.287 75.8258L158.99 79.1225L158.245 79.9733L157.395 80.9304L156.65 81.7812L155.693 82.632L154.736 82.951L152.396 83.2701L148.674 83.6955L145.484 84.2272L140.804 85.078L136.657 85.7161L131.02 86.8859L126.447 87.7367L122.513 88.6938L117.833 89.6509L113.792 90.7144L110.602 91.4588L103.157 93.5858L99.5415 94.7556L96.8828 95.3937H96.4575V95.6064L97.5209 95.9254L99.6479 96.6699L102.094 97.627L108.475 99.6476L114.111 101.243L116.344 101.881L117.833 102.2L122.619 103.476L126.341 104.327L128.893 104.965L137.72 106.879L144.42 108.155L147.398 108.793L152.29 109.538L153.779 109.857H154.63L155.48 110.495L157.501 112.516L158.245 113.366L159.521 114.643L160.479 115.812L161.755 117.195L162.499 118.046L163.988 119.641L165.583 121.236L166.328 122.087L167.285 123.044L168.029 123.895L168.986 124.958L169.731 125.809L170.688 126.873L172.177 128.468V128.68L161.755 128.787L159.734 128.893L154.098 128.999H147.185L146.122 128.149L144.633 127.085L142.612 125.596L140.485 124.001L138.465 122.512L136.55 121.13L135.274 120.279L133.785 119.216L131.978 117.939L124.001 112.622L121.555 111.027L120.067 110.07L117.94 108.793L114.749 106.667L111.771 104.859L109.326 103.476L107.624 102.413L105.072 100.924L101.988 99.3286L96.8828 96.7762L96.5638 96.5635L96.8828 97.5206L98.6908 101.03L102.413 108.474L103.689 110.601L105.284 113.579L106.56 115.812L108.368 118.79L109.751 121.13L111.559 124.108L112.941 126.341L115.175 129.744L116.344 131.552L117.514 133.466L119.854 136.976L121.662 139.634L123.044 141.548L124.746 143.994L125.916 145.696L127.298 147.61L127.511 148.036L127.298 153.991L126.873 160.372L126.766 163.243L126.554 172.815L125.597 172.177L124.746 171.432V171.219H124.533L123.789 170.369L122.406 169.092L118.365 165.051L117.514 164.307L116.451 163.35L113.792 160.691L112.941 159.947L111.878 158.883L111.027 158.139L110.495 157.713V157.501L110.07 157.288L108.9 156.012L108.475 155.48L108.156 153.672L107.518 148.461L106.135 140.804L105.603 137.295L104.434 131.445L103.689 127.298L103.051 124.639L102.2 120.811L101.668 118.046L100.924 115.387L99.9669 111.452L99.1161 108.474L98.2654 105.178L96.9892 101.349L96.3511 98.6905L95.9257 97.308H95.5003L94.8622 98.7968L93.6924 102.094L92.5226 105.603L91.5655 108.793L90.3957 112.835L89.6512 115.387L88.6941 119.322L87.6306 123.469L86.0354 129.957L84.7592 135.806L83.9085 139.847L82.6323 146.228L81.8879 151.12L81.3561 154.097L80.8244 155.374L79.5482 156.756L78.272 158.032L77.4213 158.777L75.2943 160.691L74.4435 161.435L73.3801 162.393L72.1039 163.562L71.0404 164.626L70.1896 165.37L69.1262 166.327L68.2754 167.072L67.531 167.816L66.6802 168.561L65.8294 169.412L64.9786 170.156L63.9151 171.219L63.3834 171.645L62.958 172.177H62.7453L62.639 171.645L62.3199 148.78V147.398L62.5326 146.76L63.4898 145.696L64.6596 144.101L66.1484 142.08L67.2119 140.698L68.4881 138.89L70.1896 136.444L71.3595 134.742L72.742 132.828L74.0181 131.02L75.2943 129.106L76.5705 127.298L78.5911 124.214L79.9736 122.087L81.2498 120.066L81.9942 119.003L83.2704 116.876L84.5465 114.855L86.0354 112.303L87.737 109.432L89.8639 105.816L90.9274 103.901L92.8416 100.498L94.0115 98.1587L95.1813 96.3508H94.9686L92.5226 97.5206L84.6529 101.456L82.9513 102.413L80.718 103.582L78.9101 104.646L72.9547 108.049L71.4658 109.006L69.7643 109.963L68.2754 110.92L66.1484 112.197L64.5532 113.26L62.639 114.43L60.6184 115.706L57.6406 117.727L55.7264 119.003L51.0471 122.087L48.7075 123.682L47.5376 124.533L45.9424 125.703L43.6028 127.298L42.9647 127.617H41.0504L33.7125 127.298L27.3316 126.979L21.4825 126.766L19.3556 126.554L18.3984 126.234L18.8238 125.703L19.6746 124.958L19.9936 124.852L20.2063 124.427L21.0571 123.576L22.0143 122.406H22.2269L22.4396 121.981L27.0126 117.408L27.757 116.557L34.9886 109.325L35.7331 108.793L38.4981 108.155L45.4107 107.092L50.7281 106.241L54.0248 105.603L59.4485 104.646L67.9563 102.838L72.5293 101.775L76.6768 100.817L82.4196 99.3286L87.0989 98.0524L92.4163 96.3508L94.3305 95.7127L94.5432 95.5L89.9703 94.0112L84.7592 92.3096L80.2926 91.0335L74.2308 89.3319L66.7865 87.4176L63.5961 86.6732L58.9168 85.6097L50.3027 83.8018L41.2631 82.1003L36.3712 81.2495L35.7331 80.8241L34.2442 79.3352L33.4998 78.4845L31.5855 76.5702L30.8411 75.7194L29.7776 74.5496L29.0332 73.6988L28.0761 72.6353L27.5443 72.1036L25.6301 69.9767L23.8222 68.1688L23.0777 67.318L21.9079 66.0418L21.0571 64.9783L19.8873 63.7022L19.1429 62.9577V62.8514L20.5254 62.745L30.203 62.6387L43.1774 62.426H43.9218L45.0916 63.1704L46.5805 64.3402L48.0694 65.4037L50.09 66.8926L52.0042 68.2751L53.7058 69.4449L57.5343 72.21L58.8105 73.0607L62.2136 75.4004L65.8294 77.8464L68.7008 79.7606L70.8277 81.1431L72.3166 81.9939L73.9118 83.0574L76.2514 84.5463L79.0165 86.1415L81.9942 87.843L83.4831 88.8002L85.1846 89.7573L87.5243 91.1398L89.6512 92.3096L92.0972 93.4794L93.7988 94.3302L94.7559 94.9683L95.1813 95.0747V94.6493L94.8622 94.5429L93.5861 92.416L91.6718 88.3748L89.6512 84.3336L88.1624 81.7812L86.8862 79.3352L85.1846 76.4639L83.3767 73.3798L81.5688 70.402L79.9736 67.7434L78.9101 66.0418L77.953 64.4466L76.7832 62.5323L75.4007 60.5117L72.3166 55.9388L69.2325 51.2595L67.3183 48.3881L66.1484 46.7929L64.5532 44.666V44.4533L64.2342 44.3469L63.8088 43.6025V37.4343L64.1278 29.3519L64.4469 23.3965L64.5532 20.0997L64.6596 18.6108Z" fill="currentColor"/>
<path d="M28.2881 28.0757L32.542 29.6709L35.8388 30.9471L37.753 31.6915L40.8371 32.8613L42.4323 33.4994L43.2831 34.8819L44.8783 37.5406L46.4735 39.9866L47.6433 41.9009L48.7068 43.4961L50.7274 46.4738L51.8972 48.1753L53.3861 50.1959L54.6622 52.0039L56.2575 54.1308L57.1082 55.3006L57.959 56.3641L59.3415 58.172L60.7241 59.7672L62.0002 61.2561L63.2764 62.6386L63.7018 63.2767L63.17 63.4894L62.0002 62.7449L60.8304 61.5751L59.9796 60.8307L58.8098 59.7672L57.1082 58.491L55.7257 57.4276L54.5559 56.4704L53.1734 55.407L51.1528 53.9181L49.8766 53.0673L47.7497 51.5785L45.9418 50.3023L43.9212 48.9198L42.0069 47.6436L39.4546 46.0484L35.9451 43.7088L34.1372 42.6453L33.3928 41.7945L32.861 40.731L31.2658 36.3708L29.8833 32.755L29.0325 30.8407L28.2881 28.6074V28.0757Z" fill="currentColor"/>
<path d="M95.9252 0L96.3506 0.42539L97.3077 2.55234L98.3712 4.78563L99.541 7.55067L100.392 9.35857L101.136 11.1665L101.987 12.868L102.306 13.7188L102.2 14.7823L101.881 16.1648L101.349 17.9727L100.604 21.1631L99.9664 24.2472L99.0093 28.9265L98.0521 34.7756L97.3077 38.8168L96.9887 42.0072L96.6696 47.2183L96.3506 49.7706L96.0315 50.515L95.7125 50.3023L95.6061 49.5579L95.2871 44.6659L94.649 37.966L94.2236 35.4137L93.2665 30.2027L92.7348 27.0123L91.4586 21.0568L90.2888 15.5267L89.9697 14.4633V13.6125L90.5015 12.3363L92.3094 8.5078L93.4792 5.74276L94.7554 3.08408L95.7125 0.212695L95.9252 0Z" fill="currentColor"/>
<path d="M13.7188 88.9065L14.7823 89.1192L17.2283 89.7573L19.7806 90.3954L24.9916 91.4588L28.6075 92.2033L33.9248 93.054L38.9232 93.9048L42.6453 94.3302L47.8563 94.7556L49.3452 94.9683L49.5579 95.181L49.7706 95.5L49.9833 95.6064L49.8769 95.7127L42.1136 96.2445L38.3914 96.5635L35.6264 96.9889L29.8836 98.0524L26.3742 98.5841L22.5457 99.4349L18.9298 100.179L15.6331 100.924L14.1442 101.349L13.3998 101.243L10.8474 100.073L8.61414 99.1158L4.36024 97.2016L0.850779 95.7127L0 95.181V94.9683L3.72216 93.3731L6.48719 92.2033L10.7411 90.289L13.3998 89.0128L13.7188 88.9065Z" fill="currentColor"/>
<path d="M127.936 128.361L128.361 128.468L128.999 128.893L129.531 129.212L130.488 129.957L130.807 130.063L131.339 130.595L132.721 131.764L133.785 132.615L136.55 134.742L139.527 136.975L141.548 138.464L142.824 139.421L143.888 140.166L145.908 141.442L150.375 144.42L151.757 145.377L154.948 147.398L157.181 148.674L157.713 149.205L159.308 153.14L160.478 156.331L161.648 159.415L162.818 162.286L163.137 163.243L162.179 163.031L160.052 162.286L157.287 161.116L154.097 159.947L151.651 158.989L149.949 158.351L148.886 157.713L148.142 156.756L146.972 154.842L146.015 153.247L144.951 151.651L143.781 149.844L142.399 147.61L141.123 145.802L140.059 144.313L138.996 142.718L137.72 140.91L136.337 138.996L134.848 136.869L133.678 135.487L132.508 133.998L131.445 132.615L130.169 131.126L129.424 130.276L128.361 129.106L127.936 128.574V128.361Z" fill="currentColor"/>
<path d="M163.137 28.2883H163.35L163.243 28.9264L162.393 30.5216L161.223 33.8184L160.585 35.52L160.053 36.7961L159.202 39.0294L158.351 41.05L157.926 42.1135L157.394 42.6452L156.012 43.6024L154.629 44.4531L153.14 45.3039L151.545 46.3674L148.461 48.388L146.547 49.6642L144.207 51.2594L141.549 53.0673L139.634 54.4498L137.614 55.9387L136.231 57.0021L132.403 59.9799L131.339 60.8306L130.063 62.0005L129 62.9576L128.042 63.5957H127.404L127.617 63.1703L129.106 61.6814L129.85 60.8306L131.126 59.3418L131.977 58.2783L133.041 56.8958L134.317 55.4069L135.806 53.3863L136.976 51.7911L138.252 49.9832L139.741 47.8563L141.123 45.942L142.506 43.9214L143.675 42.2198L144.952 40.1992L146.121 38.3913L147.823 35.52L148.993 33.712L151.652 32.5422L156.012 30.947L159.947 29.4582L162.499 28.501L163.137 28.2883Z" fill="currentColor"/>
<path d="M95.0747 140.591L95.2874 141.017L95.5001 144.42L96.0318 148.567L96.5636 152.396L97.308 158.245L98.5842 164.626L99.2222 168.242L100.392 173.027L100.924 175.899L101.03 176.856V177.919L100.817 178.876L99.6476 181.322L99.1159 182.28L98.4778 183.981L97.2016 186.64L96.1382 189.192L95.181 191L94.862 190.894L93.1604 187.171L91.5652 183.662L90.8208 181.96L89.651 179.408L89.2256 177.813V176.324L89.7573 173.346L90.5018 170.369L91.4589 165.689L92.3097 161.223L92.9477 157.82L93.7985 151.97L94.543 146.547L94.7557 143.994L94.9683 140.698L95.0747 140.591Z" fill="currentColor"/>
<path d="M61.7874 128.787L62.4255 128.893L62.5319 129.318L61.2557 130.807L60.2986 131.871L59.1287 133.253L57.9589 134.742L56.2574 136.869L54.9812 138.571L53.705 140.378L52.7479 141.655L51.3654 143.569L50.3019 145.058L49.0257 147.078L48.175 148.248L47.1115 149.95L44.8782 153.353L43.4957 155.586L42.3259 157.394L41.4751 157.926L39.9862 158.67L37.2212 159.521L34.7752 160.585L32.4355 161.435L29.4578 162.605L28.607 162.924H28.1816L28.288 162.073L29.6705 158.458L30.6276 155.799L31.5848 153.459L32.0101 152.289L32.9673 149.631L33.6054 148.78L34.6688 148.036L36.6894 146.866L38.072 146.015L40.6243 144.42L47.6432 139.74L49.2384 138.571L53.0669 135.806L54.4495 134.742L56.3637 133.253L57.6399 132.296L59.1287 131.02L59.9795 130.275L61.4684 128.999L61.7874 128.787Z" fill="currentColor"/>
<path d="M177.068 90.0762L177.6 90.1825L180.897 91.4587L183.662 92.7349L186.32 93.9047L190.149 95.6062L191 96.0316L190.893 96.3507L188.341 97.6268L185.47 98.7967L183.236 99.8601L181.109 100.711L178.557 101.987L177.281 102.2L175.579 101.987L171.644 101.03L166.752 99.9665L162.924 99.2221L158.351 98.3713L147.823 96.8824L145.696 96.6697L140.697 96.457L140.804 96.138L146.015 95.6062L150.269 94.9682L157.607 94.011L162.392 93.1602L170.9 91.4587L176.855 90.1825L177.068 90.0762Z" fill="currentColor"/>
<path d="M219.29 110.5V38.0342L268.772 89.8018V42.6484H279.012V114.631L229.529 62.9951V110.5H219.29ZM292.547 76.2666C292.547 66.7158 296.048 58.5127 303.05 51.6572C310.022 44.8018 318.401 41.374 328.187 41.374C337.854 41.374 346.146 44.8311 353.06 51.7451C360.003 58.6592 363.475 66.9648 363.475 76.6621C363.475 86.418 359.988 94.6943 353.016 101.491C346.014 108.317 337.562 111.73 327.659 111.73C318.899 111.73 311.033 108.698 304.061 102.634C296.385 95.9248 292.547 87.1357 292.547 76.2666ZM302.874 76.3984C302.874 83.8984 305.394 90.0654 310.433 94.8994C315.442 99.7334 321.229 102.15 327.791 102.15C334.91 102.15 340.916 99.6895 345.809 94.7676C350.701 89.7871 353.147 83.7227 353.147 76.5742C353.147 69.3379 350.73 63.2734 345.896 58.3809C341.092 53.459 335.145 50.998 328.055 50.998C320.994 50.998 315.032 53.459 310.169 58.3809C305.306 63.2441 302.874 69.25 302.874 76.3984ZM399.334 81.584L420.34 110.5H407.815L388.436 82.7266H386.59V110.5H376.351V42.6484H388.348C397.312 42.6484 403.787 44.333 407.771 47.7021C412.166 51.4521 414.363 56.4033 414.363 62.5557C414.363 67.3604 412.986 71.4912 410.232 74.9482C407.479 78.4053 403.846 80.6172 399.334 81.584ZM386.59 73.8057H389.842C399.539 73.8057 404.388 70.0996 404.388 62.6875C404.388 55.7441 399.671 52.2725 390.237 52.2725H386.59V73.8057ZM430.579 110.5V42.6484H444.817C451.644 42.6484 457.034 43.3223 460.989 44.6699C465.237 45.9883 469.09 48.2295 472.547 51.3936C479.549 57.7803 483.05 66.1738 483.05 76.5742C483.05 87.0039 479.402 95.4414 472.107 101.887C468.445 105.109 464.607 107.351 460.594 108.61C456.844 109.87 451.526 110.5 444.642 110.5H430.579ZM440.818 100.876H445.433C450.032 100.876 453.855 100.393 456.902 99.4258C459.949 98.4004 462.703 96.7744 465.164 94.5479C470.203 89.9482 472.723 83.957 472.723 76.5742C472.723 69.1328 470.232 63.0977 465.252 58.4688C460.77 54.3379 454.163 52.2725 445.433 52.2725H440.818V100.876Z" fill="currentColor"/>
<path d="M230.424 146.099V150.142C228.451 148.491 226.41 147.666 224.301 147.666C221.977 147.666 220.019 148.501 218.427 150.171C216.825 151.831 216.024 153.862 216.024 156.265C216.024 158.638 216.825 160.64 218.427 162.271C220.028 163.901 221.991 164.717 224.315 164.717C225.517 164.717 226.537 164.521 227.377 164.131C227.846 163.936 228.329 163.672 228.827 163.34C229.335 163.008 229.867 162.607 230.424 162.139V166.255C228.471 167.358 226.42 167.91 224.271 167.91C221.039 167.91 218.28 166.782 215.995 164.526C213.72 162.251 212.582 159.507 212.582 156.294C212.582 153.413 213.534 150.845 215.438 148.589C217.782 145.825 220.814 144.443 224.535 144.443C226.566 144.443 228.529 144.995 230.424 146.099ZM233.441 160.264C233.441 158.203 234.179 156.45 235.653 155.005C237.128 153.56 238.925 152.837 241.044 152.837C243.173 152.837 244.979 153.564 246.464 155.02C247.929 156.475 248.661 158.262 248.661 160.381C248.661 162.52 247.924 164.312 246.449 165.757C244.965 167.192 243.144 167.91 240.985 167.91C238.847 167.91 237.055 167.178 235.609 165.713C234.164 164.268 233.441 162.451 233.441 160.264ZM236.811 160.322C236.811 161.748 237.191 162.876 237.953 163.706C238.734 164.546 239.765 164.966 241.044 164.966C242.333 164.966 243.363 164.551 244.135 163.721C244.906 162.891 245.292 161.782 245.292 160.396C245.292 159.009 244.906 157.9 244.135 157.07C243.354 156.23 242.323 155.811 241.044 155.811C239.784 155.811 238.764 156.23 237.982 157.07C237.201 157.91 236.811 158.994 236.811 160.322ZM252.162 153.232H255.473V154.551C256.625 153.408 257.924 152.837 259.369 152.837C261.029 152.837 262.323 153.359 263.251 154.404C264.052 155.293 264.452 156.743 264.452 158.755V167.5H261.142V159.531C261.142 158.125 260.946 157.153 260.556 156.616C260.175 156.069 259.481 155.796 258.476 155.796C257.382 155.796 256.605 156.157 256.146 156.88C255.697 157.593 255.473 158.838 255.473 160.615V167.5H252.162V153.232ZM276.918 155.664L274.193 157.114C273.764 156.235 273.231 155.796 272.597 155.796C272.294 155.796 272.035 155.898 271.82 156.104C271.605 156.299 271.498 156.553 271.498 156.865C271.498 157.412 272.133 157.954 273.402 158.491C275.15 159.243 276.327 159.937 276.933 160.571C277.538 161.206 277.841 162.061 277.841 163.135C277.841 164.512 277.333 165.664 276.317 166.592C275.331 167.471 274.14 167.91 272.743 167.91C270.351 167.91 268.656 166.743 267.66 164.409L270.473 163.105C270.863 163.789 271.161 164.224 271.366 164.409C271.767 164.78 272.245 164.966 272.802 164.966C273.915 164.966 274.472 164.458 274.472 163.442C274.472 162.856 274.042 162.31 273.183 161.802C272.851 161.636 272.519 161.475 272.187 161.318C271.854 161.162 271.518 161.001 271.176 160.835C270.219 160.366 269.545 159.897 269.154 159.429C268.656 158.833 268.407 158.066 268.407 157.129C268.407 155.889 268.832 154.863 269.682 154.053C270.551 153.242 271.605 152.837 272.846 152.837C274.672 152.837 276.029 153.779 276.918 155.664ZM284.11 153.232V161.421C284.11 163.784 285.043 164.966 286.908 164.966C288.773 164.966 289.706 163.784 289.706 161.421V153.232H293.002V161.494C293.002 162.637 292.86 163.623 292.577 164.453C292.304 165.195 291.83 165.864 291.156 166.46C290.043 167.427 288.627 167.91 286.908 167.91C285.199 167.91 283.788 167.427 282.675 166.46C281.991 165.864 281.508 165.195 281.225 164.453C280.951 163.789 280.814 162.803 280.814 161.494V153.232H284.11ZM300.458 142.759V167.5H297.162V142.759H300.458ZM308.031 156.309V167.5H304.735V156.309H303.329V153.232H304.735V148.003H308.031V153.232H310.595V156.309H308.031ZM316.132 153.232V167.5H312.836V153.232H316.132ZM312.338 147.3C312.338 146.724 312.548 146.226 312.968 145.806C313.388 145.386 313.891 145.176 314.477 145.176C315.072 145.176 315.58 145.386 316 145.806C316.42 146.216 316.63 146.719 316.63 147.314C316.63 147.91 316.42 148.418 316 148.838C315.59 149.258 315.087 149.468 314.491 149.468C313.896 149.468 313.388 149.258 312.968 148.838C312.548 148.418 312.338 147.905 312.338 147.3ZM320.307 153.232H323.617V154.551C324.77 153.408 326.068 152.837 327.514 152.837C329.174 152.837 330.468 153.359 331.396 154.404C332.196 155.293 332.597 156.743 332.597 158.755V167.5H329.286V159.531C329.286 158.125 329.091 157.153 328.7 156.616C328.319 156.069 327.626 155.796 326.62 155.796C325.526 155.796 324.75 156.157 324.291 156.88C323.842 157.593 323.617 158.838 323.617 160.615V167.5H320.307V153.232ZM350.57 167.163C350.57 167.837 350.546 168.428 350.497 168.936C350.458 169.453 350.399 169.907 350.321 170.298C350.087 171.372 349.628 172.295 348.944 173.066C347.655 174.551 345.883 175.293 343.627 175.293C341.723 175.293 340.155 174.78 338.925 173.755C337.655 172.7 336.923 171.24 336.728 169.375H340.038C340.165 170.078 340.375 170.62 340.668 171.001C341.352 171.89 342.348 172.334 343.656 172.334C346.068 172.334 347.274 170.854 347.274 167.896V165.903C345.966 167.241 344.457 167.91 342.748 167.91C340.805 167.91 339.213 167.207 337.973 165.801C336.723 164.375 336.098 162.593 336.098 160.454C336.098 158.374 336.679 156.606 337.841 155.151C339.091 153.608 340.741 152.837 342.792 152.837C344.589 152.837 346.083 153.506 347.274 154.844V153.232H350.57V167.163ZM347.406 160.396C347.406 159.009 347.035 157.9 346.293 157.07C345.541 156.221 344.579 155.796 343.407 155.796C342.157 155.796 341.171 156.26 340.448 157.188C339.794 158.018 339.467 159.092 339.467 160.41C339.467 161.709 339.794 162.773 340.448 163.604C341.161 164.512 342.147 164.966 343.407 164.966C344.667 164.966 345.663 164.507 346.396 163.589C347.069 162.759 347.406 161.694 347.406 160.396Z" fill="currentColor"/>
</svg>
